<svg xmlns="http://www.w3.org/2000/svg" fill="none" viewBox="0 0 100 75" role="img" aria-label="The Ant Fund logo"><path fill="#e8963e" d="m43.66 3.5.4.05q.62.05 1.22.23l.24.03q.36.06.71.16l.1.03q.26.09.51.22l.3.04v.09q.1 0 .17.03c.44.1.9.23 1.29.47q.26.14.55.22.27.1.52.28l.13.05q.21.09.39.24.33.23.68.41.3.14.53.38.2.19.44.35l.18.14.09.06.2.16.18.12q.17.1.3.26l.25.2.06.06v.09l.08.03c.26.14.46.37.65.6.05.06.05.06.14.1v.1h.08l.13.13.36.4q.52.58.97 1.21l.09.13.07.11.18.2c.07.07.07.07.07.16l.09.03c.1.07.12.1.17.22q.2.52.52.96c.27.34.46.77.58 1.18q.08.16.2.3c.14.24.23.57.3.86q.02.16.1.32l.18.58.1.25q.11.3.2.62l.04.12q.08.29.12.59.02.17.07.35.13.56.16 1.13l.15 1.43.03 1.28q0 .36-.07.7l-.07.56-.01.1-.09.87c-.02.23-.02.23-.07.28l-.04.26q-.1.68-.31 1.35l-.03.1q-.11.41-.28.81-.1.27-.17.54-.1.42-.3.8l-.07.14-.06.13-.08.18q-.28.62-.65 1.17c-.37.56-.37.56-.5.83q-.12.24-.3.46a3 3 0 0 0-.3.44h-.08l-.04.1a1 1 0 0 1-.23.34h-.08l-.09.21h-.09q0 .04-.03.07a1 1 0 0 1-.36.41l-.04.13h-.09v.09h-.08l-.04.08q-.13.22-.31.4l-.1.1c-.08.07-.08.07-.2.07l-.03.1c-.08.15-.18.2-.32.3l-.08.07-.05.05h-.1v.13c-.14.13-.14.13-.25.13l-.03.08a1 1 0 0 1-.23.24l-.11.07-.11.08-.33.24a7 7 0 0 0-.64.52q-.22.17-.49.28l-.34.22-.3.18-.25.19a.6.6 0 0 1-.39.16v.09l-.55.22c-.1.04-.1.04-.14.13l-.19.08-.5.2q-.37.15-.76.27l-.8.3a6 6 0 0 1-1.15.33l-.13.03-.1.02-.2.07c-.19.1-.41.1-.62.14l-.26.04a15 15 0 0 1-3.03.18q-.87.01-1.73-.1l-.1-.01-.56-.1-.17-.02a4 4 0 0 1-.78-.22l-.3-.05q-.71-.14-1.4-.38l-.11-.04q-.53-.16-1.05-.4-.28-.12-.57-.21-.47-.17-.88-.45a6 6 0 0 1-.63-.3l-.12-.05-.29-.2-.12-.06c-.14-.07-.14-.07-.23-.17q-.28-.24-.6-.38v-.09h-.1a1 1 0 0 1-.5-.36q-.18-.2-.4-.31-.2-.15-.37-.36l-.18-.1c-.1-.04-.1-.04-.15-.15l-.04-.1-.13-.05-.07-.1q-.26-.3-.6-.54-.15-.15-.29-.32v-.08l-.08-.03c-.12-.08-.15-.16-.22-.28l-.11-.1a1 1 0 0 1-.2-.29h-.08l-.12-.14-.26-.28a2 2 0 0 1-.37-.54q-.13-.3-.36-.54-.14-.14-.24-.33l-.21-.35-.1-.2-.05-.06q-.13-.16-.22-.36l-.3-.57a5 5 0 0 1-.3-.71l-.21-.53-.05-.11-.04-.1-.04-.11-.09-.22a4 4 0 0 1-.2-.57q-.06-.25-.16-.49l-.11-.4-.04-.13a12 12 0 0 1-.31-1.69l-.08-.42c-.13-.56-.11-1.13-.11-1.71v-.33c.01-1.97.01-1.97.19-2.67l.04-.18.02-.1.13-.61.15-.72q.1-.45.23-.9.08-.24.13-.48.08-.42.31-.77.2-.32.32-.68l.19-.47.06-.14q.13-.27.28-.52.21-.35.35-.72.11-.21.28-.39.1-.13.16-.27a1 1 0 0 1 .24-.32c.14-.14.2-.26.27-.44q.13-.24.32-.45l.17-.22h.13l.08-.18h.1l.03-.07c.26-.51.73-.92 1.15-1.3q.22-.2.43-.42.33-.35.74-.6.25-.15.43-.38c.2-.24.48-.37.73-.53l.29-.19.4-.27.18-.13c.09-.06.09-.06.2-.08.1-.02.1-.02.16-.08q.15-.13.34-.2l.16-.07.08-.04.25-.1c.4-.18.4-.18.55-.18l.04-.14.28-.11.1-.04.27-.1.36-.14.09-.03.47-.2c.37-.18.78-.24 1.17-.32l.24-.05q.8-.17 1.63-.29.36-.04.72-.11.38-.06.75-.04.42 0 .82-.02 1.2-.06 2.4.13"/><path fill="#278a93" d="M22.3 34.23h.93q.9 0 1.8.1l.17.02.45.06.16.02q.54.07 1.07.19l.14.02.12.03.1.02c.1.03.1.03.18.12l.29.07q.48.11.94.27l.13.04q.38.13.75.3.15.08.3.13.32.13.6.28l.1.04q.2.1.37.26l.2.1q.2.1.37.23.17.14.38.23l.3.22v.09q.05 0 .08.03.22.12.41.29l.09.06.08.07.07.05c.06.06.06.06.1.2l.18.08q.3.21.52.52v.09l.13.04v.09h.08v.08l.08.03c.13.08.18.16.27.29q.16.24.37.47.14.18.24.39l.13.22.13.24.07.12c.32.55.32.55.32.68h.09q.18.37.31.76l.14.38a12 12 0 0 1 .52 2.14c.33 1.83.1 3.75-.5 5.5l-.04.14q-.1.31-.26.6l-.08.2q-.12.29-.3.53a.6.6 0 0 1-.41-.2l-.37-.3q-.05-.02-.08-.06l-.45-.35c-.42-.32-.42-.32-.48-.44l-.1-.05c-.12-.08-.12-.08-.22-.18q-.15-.14-.31-.24-.22-.14-.37-.35l-.26-.2-.3-.28-.27-.23-.07-.06a1 1 0 0 0-.32-.19l-.08-.13-.08-.04c-.12-.06-.18-.13-.27-.22-.2-.21-.2-.21-.35-.26-.12-.1-.12-.1-.22-.22v-.08l-.07-.01c-.13-.05-.18-.11-.27-.21l-.57-.48v-.09l-.07-.03-.32-.2-.11-.08q-.16-.11-.28-.25a2.8 2.8 0 0 0-1.87-.87h-.17c-.79-.04-1.4.2-2 .7q-.2.17-.34.4c-.05.1-.05.1-.1.16h-.08l-.04.1q-.08.18-.18.34l-.08.13-.07.13-.23.37-.1.23h-.08l-.04.1q-.07.16-.17.31-.2.34-.37.72-.1.18-.25.35l-.12.22-.3.55L22 50c-.07.1-.07.1-.2.14v.11a1 1 0 0 1-.23.44q-.15.23-.27.48c-.06.1-.06.1-.15.2l-.04.16h-.09l-.03.09q-.24.52-.56.99-.2.3-.37.63c-.18.36-.18.36-.3.42l-.09.22q-.16.34-.37.66-.22.3-.39.64-.12.23-.27.45a10 10 0 0 0-.75 1.31q-.1.2-.26.33l-.13.22q-.1.2-.26.35l-.38-.01h-.11l-.92-.1-.12-.01a7 7 0 0 1-.79-.15l-1.04-.2a9 9 0 0 1-1.1-.27l-.76-.2a12 12 0 0 1-2.23-.67l-.5-.2-.34-.15-.65-.3-.14-.06a8 8 0 0 1-1.2-.64q-.37-.2-.71-.43v-.1l-.1-.03q-.42-.18-.73-.53l-.17-.17-.1-.1-.19-.18a6 6 0 0 1-1.24-1.88c-.03-.1-.03-.1-.1-.24q-.1-.26-.14-.54l-.01-.1a7 7 0 0 1-.09-.83v-.1c-.02-.6 0-1.18.17-1.77q.04 0 .1-.04l.02-.24c.08-.6.34-1.23.62-1.76l.16-.3.08-.16.12-.25q.14-.3.35-.56c.14-.22.3-.44.38-.68l.13-.13.1-.16a5 5 0 0 1 .48-.67l.05-.08.15-.2c.09-.11.09-.11.18-.15l.13-.22.2-.25.06-.07 1.05-1.2.3-.3.1-.11q.3-.3.63-.57.2-.16.38-.36c.06-.05.06-.05.14-.05v-.09l.2-.16.1-.08c.1-.06.1-.06.18-.06l.05-.13.2-.16q.27-.18.5-.38a14 14 0 0 1 2.52-1.6q.89-.5 1.84-.86c.1-.04.1-.04.24-.13l.62-.22a19 19 0 0 1 2.73-.8c.86-.24 1.75-.33 2.64-.42h.12q.45-.05.89-.05"/><path fill="#f0c44d" d="m43.66 3.5.4.05q.62.05 1.22.23l.24.03q.36.06.71.16l.1.03q.26.09.51.22l.3.04v.09q.1 0 .17.03c.44.1.9.23 1.29.47q.26.14.55.22.27.1.52.28l.13.05q.21.09.39.24.33.23.68.41.3.14.53.38.2.19.44.35l.18.14.09.06.2.16.18.12q.17.1.3.26l.25.2.06.06v.09l.08.03c.26.14.46.37.65.6.05.06.05.06.14.1v.1h.08l.13.13.36.4q.52.58.97 1.21l.09.13.07.11.18.2c.07.07.07.07.07.16l.09.03c.1.07.12.1.17.22q.2.52.52.96c.27.34.46.77.58 1.18q.08.16.2.3c.14.24.23.57.3.86q.02.16.1.32l.18.58.1.25q.11.3.2.62l.04.12q.08.29.12.59.02.17.07.35.13.56.16 1.13l.15 1.43.03 1.28q0 .36-.07.7l-.07.56-.01.1-.09.87c-.02.23-.02.23-.07.28l-.04.26q-.1.68-.31 1.35l-.03.1q-.11.41-.28.81-.1.27-.17.54-.1.42-.3.8l-.07.14-.06.13-.08.18q-.28.62-.65 1.17c-.37.56-.37.56-.5.83q-.12.24-.3.46a3 3 0 0 0-.3.44h-.08l-.04.1a1 1 0 0 1-.23.34h-.08l-.09.21h-.09q0 .04-.03.07a1 1 0 0 1-.36.41l-.04.13h-.09v.09h-.08l-.04.08q-.13.22-.31.4l-.1.1c-.08.07-.08.07-.2.07l-.03.1c-.08.15-.18.2-.32.3l-.08.07-.05.05h-.1v.13c-.14.13-.14.13-.25.13l-.03.08a1 1 0 0 1-.23.24l-.11.07-.11.08-.33.24a7 7 0 0 0-.64.52q-.22.17-.49.28l-.34.22-.3.18-.25.19a.6.6 0 0 1-.39.16v.09l-.55.22c-.1.04-.1.04-.14.13l-.19.08-.5.2q-.37.15-.76.27l-.8.3a6 6 0 0 1-1.15.33l-.13.03-.1.02-.2.07c-.19.1-.41.1-.62.14l-.26.04a15 15 0 0 1-3.03.18q-.87.01-1.73-.1l-.1-.01-.56-.1-.17-.02a4 4 0 0 1-.78-.22l-.3-.05q-.71-.14-1.4-.38l-.11-.04q-.53-.16-1.05-.4-.28-.12-.57-.21-.47-.17-.88-.45a6 6 0 0 1-.63-.3l-.12-.05-.29-.2-.12-.06c-.14-.07-.14-.07-.23-.17q-.28-.24-.6-.38v-.09h-.1a1 1 0 0 1-.5-.36q-.18-.2-.4-.31-.2-.15-.37-.36l-.18-.1c-.1-.04-.1-.04-.15-.15l-.04-.1-.13-.05-.07-.1q-.26-.3-.6-.54-.15-.15-.29-.32v-.08l-.08-.03c-.12-.08-.15-.16-.22-.28l-.11-.1a1 1 0 0 1-.2-.29h-.08l-.12-.14-.26-.28a2 2 0 0 1-.37-.54q-.13-.3-.36-.54-.14-.14-.24-.33l-.21-.35-.1-.2-.05-.06q-.13-.16-.22-.36l-.3-.57a5 5 0 0 1-.3-.71l-.21-.53-.05-.11-.04-.1-.04-.11-.09-.22a4 4 0 0 1-.2-.57q-.06-.25-.16-.49l-.11-.4-.04-.13a12 12 0 0 1-.31-1.69l-.08-.42c-.13-.56-.11-1.13-.11-1.71v-.33c.01-1.97.01-1.97.19-2.67l.04-.18.02-.1.13-.61.15-.72q.1-.45.23-.9.08-.24.13-.48.08-.42.31-.77.2-.32.32-.68l.19-.47.06-.14q.13-.27.28-.52.21-.35.35-.72.11-.21.28-.39.1-.13.16-.27a1 1 0 0 1 .24-.32c.14-.14.2-.26.27-.44q.13-.24.32-.45l.17-.22h.13l.08-.18h.1l.03-.07c.26-.51.73-.92 1.15-1.3q.22-.2.43-.42.33-.35.74-.6.25-.15.43-.38c.2-.24.48-.37.73-.53l.29-.19.4-.27.18-.13c.09-.06.09-.06.2-.08.1-.02.1-.02.16-.08q.15-.13.34-.2l.16-.07.08-.04.25-.1c.4-.18.4-.18.55-.18l.04-.14.28-.11.1-.04.27-.1.36-.14.09-.03.47-.2c.37-.18.78-.24 1.17-.32l.24-.05q.8-.17 1.63-.29.36-.04.72-.11.38-.06.75-.04.42 0 .82-.02 1.2-.06 2.4.13m-9.39 5.8-.2.13a11 11 0 0 0-1.78 1.4l-.52.5-.1.1c-.59.6-.59.6-.73.91h-.09l-.11.14-.07.1-.07.1-.08.1a14 14 0 0 0-2.5 6.77v.1c-.27 2.93.5 6.15 2.22 8.55l.1.15.58.78.05.07.14.17h.09l.03.08q.11.18.28.35l.06.06c.44.47.44.47.59.6h.08v.09l.16.14.19.16.08.07c.17.15.17.15.27.15v.09l.21.08v.09l.16.11.1.07.1.08.12.07.35.23.1.07a13.6 13.6 0 0 0 6.04 2.16q.66.05 1.33.05h.14a13 13 0 0 0 5.38-1.15q.04 0 .1-.04c1.14-.48 2.2-1.21 3.15-2l.23-.17v-.09l.07-.03q.19-.11.34-.28l.06-.07.49-.48.06-.06c.15-.15.15-.15.15-.25h.09c.13-.15.13-.15.13-.26h.09l.3-.4.1-.13q1.17-1.6 1.86-3.47 0-.05.04-.11c.55-1.48.77-3.1.74-4.67v-.1a13.6 13.6 0 0 0-2.67-7.82l-.07-.1-.06-.1-.06-.08-.05-.05h-.1l-.02-.07q-.14-.22-.3-.4l-.08-.09-.6-.64-.09-.08a13 13 0 0 0-2.93-2.14 13 13 0 0 0-6.3-1.63h-.1c-2.56 0-5.11.68-7.27 2.08"/><path fill="#278a93" d="M84.08 8.9V9h.09c.18.24.24.45.24.75v.09c0 .19-.05.3-.16.46l-.07.11c-.25.27-.61.36-.95.48q-.74.26-1.45.58l-.16.07-.52.24c-.1.04-.1.04-.2.04v.09l-.12.05q-.73.33-1.4.77l-.16.11-.18.12-.43.3c-.1.08-.1.08-.18.08l-.04.13-.19.13q-.2.14-.37.3l-.16.13-.07.07-.16.14q-.25.2-.46.46c-.07.08-.07.08-.16.12s-.08.04-.13.17h-.08l-.03.08q-.1.17-.26.32-.3.3-.51.64l-.07.1h-.09l-.03.09q-.09.18-.22.34-.22.3-.38.62l-.19.32q-.2.33-.36.68l-.2.36-.14.3-.04.11-.05.13-.04.11a17 17 0 0 0-1.26 6.14l.39.09.1.02q.37.08.73.11.14-.21.21-.45l.31-.68.34-.74.04-.08q.28-.57.6-1.11l.07-.12.4-.6q.14-.18.24-.34c.76-1.15.76-1.15 1.13-1.48h.09l.03-.1.4-.49c.16-.19.35-.39.58-.5.07-.04.07-.04.12-.13.06-.12.15-.18.26-.26l.1-.1c.07-.08.07-.08.16-.08l.04-.13.24-.18.46-.35q.35-.26.71-.47l.6-.39q.2-.12.42-.22l.32-.15q1.41-.7 2.94-1.06l.1-.02q1.16-.29 2.34-.41l.13-.02q.54-.04 1.08-.04h.44q.4.02.65.32c.2.28.28.52.26.87q-.08.46-.47.75c-.25.15-.5.16-.78.17l-.21.01h-.11c-1.7.08-3.37.39-4.93 1.08q-.26.13-.54.16v.08l-.13.07q-.75.37-1.42.87l-.47.34-.08.06q-.14.11-.3.19c-.1.05-.11.11-.16.21-.07.08-.07.08-.15.14l-.08.07c-.08.05-.08.05-.16.05l-.01.08c-.06.18-.21.28-.36.4q-.16.13-.28.3l-.28.33q-.18.19-.34.4l-.07.08-.18.24-.06.07A15 15 0 0 0 77.04 24q-.24.4-.43.81l-.18.36-.04.09-.3.55q-.13.2-.12.43l.03.1.04.12.13.01c.62.1 1.28.7 1.78 1.06l.18.1v.1q.08 0 .17.04v.08l.1.04c.12.05.16.1.25.18l.08.04c.12.07.18.16.27.27l.26.23.3.29.13.1q.2.17.36.38l.2.2q.14.16.27.36l.21.22c.18.2.18.2.18.3h.08l.08.14q.14.23.31.44.24.3.4.6c.04.08.04.08.13.17l.13.26.24.4c.06.12.06.12.06.25l.13.04.12.23.26.58.05.13c.05.1.05.1.14.2l.19.46.06.14.1.23q.2.52.35 1.06l.07.2a5 5 0 0 1 .27 1.2l.02.15.05.2q.03.21.03.42v.62c0 .6-.05 1.18-.27 1.74l-.03.1q-.14.36-.37.69l-.06.1q-.3.4-.69.72l-.07.07a2 2 0 0 1-.52.37l-.14.08-.14.07-.14.08a6 6 0 0 1-2.1.6h-.1l-.42.05a16 16 0 0 1-5.17-.54l-.1-.02q-.38-.08-.75-.19-.06 0-.11-.03a6 6 0 0 1-.68-.24l-.36-.13q-1-.33-1.9-.83l-.3-.14a4 4 0 0 1-.5-.28l-.1-.06a2 2 0 0 1-.38-.3l-.21-.12-.31-.22-.43-.3v-.09l-.08-.03q-.26-.16-.49-.36l-.07-.06q-.4-.34-.73-.74l-.23-.23q-.13-.15-.23-.32l-.12-.14-.37-.5-.18-.22c-.06-.1-.06-.1-.06-.22h-.1a1.3 1.3 0 0 1-.3-.7h-.08a8.4 8.4 0 0 1-1.01-3.84v-.1a7 7 0 0 1 1.62-4.45l.07-.1.06-.07h.08v-.09l.16-.14.33-.3a7 7 0 0 1 2.51-1.51l.12-.05a5 5 0 0 1 1-.24q.45-.08.92-.1l.01-.12q.06-1.4.28-2.8l.01-.1.04-.25.03-.15a5 5 0 0 1 .16-.66 14 14 0 0 1 .5-1.8q.11-.38.28-.73l.1-.25q.3-.7.65-1.38l.25-.54h.08l.01-.07q.08-.2.21-.39l.06-.08.16-.24.1-.15q.23-.37.5-.72l.11-.14q.47-.61 1.02-1.15c.1-.1.1-.1.14-.23l.09-.05c.15-.1.24-.22.35-.35.08-.08.08-.08.17-.1l.08-.02.09-.18.15-.14.1-.07c0-.02 0-.02.1-.1l.11-.09q.35-.29.71-.55l.12-.1c.53-.38.53-.38.66-.38l.05-.13.32-.19q.3-.15.59-.36c.41-.3.9-.5 1.37-.69l.47-.23c2.27-1.17 2.27-1.17 3.2-.66"/><path fill="#298a92" d="m47.55 39.62.38.14q.46.2.89.5l.22.12c.14.1.18.18.24.34a4 4 0 0 1 .03.64v.12q.05.65.26 1.25l.1.36q.09.52.34.97l.19.38.04.1.05.1.04.09c.03.07.03.07.03.16h.09l.03.07q.2.36.45.68l.15.23a2 2 0 0 0 .25.32l.17.19.1.1.09.1c.16.35-.02.8-.12 1.15l-.04.14a5 5 0 0 1-.53 1.26l-.05.1-.11.22h-.09l-.03.11c-.06.17-.14.27-.25.4l-.1.13-.1.1h-.08l-.03.1a1 1 0 0 1-.28.29l-.04.09h-.09v.08c-.15.13-.15.13-.26.13l-.03.08c-.16.28-.55.46-.83.61l-.2.11q-.46.3-.99.46c-.35.1-.35.1-.45.2l-.06.28-.06.25-.04.14-.12.39-.17.6a8 8 0 0 1-.33 1.04l-.05.16-.14.51q-.14.5-.3.98-.24.68-.43 1.38l-.36 1.18-.09.28-.04.15-.26.8-.05.15-.1.27q-.1.33-.18.67l-.14.45q-.17.5-.31 1.03-.08.29-.18.56 0 .06-.03.1l-.14.4-.19.67q-.15.54-.32 1.06-.24.72-.43 1.45a6 6 0 0 1-.27.88l-.14.4-.05.14-.04.12-.1.38-.15.47a13 13 0 0 0-.3 1.02c-.02.02-.02.02-.04.12q-.19.5-.67.73a1 1 0 0 1-.54.08h-2.64c-.92 0-.92 0-1.28-.3-.21-.26-.3-.42-.3-.75v-.1a1 1 0 0 1 .24-.66c.4-.36.96-.35 1.47-.34l1.44.02h.25c.1-.02.1-.02.18-.1q.1-.17.14-.36.07-.26.17-.52.15-.4.25-.83c.14-.54.14-.54.22-.74l.12-.42.15-.47q.12-.33.2-.66.06-.22.15-.43a7 7 0 0 0 .37-1.17l.18-.6.3-1.04.04-.11.03-.09h.08l.02-.17q.04-.34.16-.66l.08-.25.05-.13.2-.64.3-.98q.15-.42.25-.86.07-.3.19-.57.27-.8.49-1.64.14-.5.33-.98.12-.3.17-.62.04-.16.12-.32.09-.23.14-.47l.03-.1.17-.64h.08v-.44l-.13-.02-.17-.02-.09-.01-.17-.02-.25-.04-.35-.08-.11-.03-.35-.11-.1-.04a1 1 0 0 0-.36-.02l-.06.1-.58.97q-.15.22-.23.45l-.16.27q-.33.53-.63 1.07l-.08.13-.2.34c-.06.1-.06.1-.09.2l-.01.08-.1.04-.08.16-.04.1-.1.21q-.09.16-.2.31-.2.33-.37.69-.1.19-.24.35l-.1.22-.08.05-.08.18c-.13.3-.28.46-.58.6q-.44.13-.87-.06-.3-.2-.56-.45c-.12-.1-.12-.1-.25-.14l-.08-.1q-.15-.17-.36-.29-.17-.11-.3-.27-.31-.28-.66-.54l-.35-.3-.4-.31-.07-.06V56l-.1-.03c-.12-.06-.12-.06-.16-.14s-.04-.09-.17-.13c-.17-.06-.2-.13-.3-.26l-.32-.24-.08-.07v-.09l-.07-.03a3 3 0 0 1-.48-.32l-.1-.08v-.09q-.3.2-.58.43-.33.3-.73.53l-.31.21c-.08.05-.08.05-.16.05l-.05.13-.24.12-.47.25q-.52.3-1.08.5a5 5 0 0 0-.69.29q-.2.09-.43.12c-.09.02-.09.02-.22.11l-.36.1-.12.03q-2.06.51-4.19.67l-.49.04-.36.02-.23.02h-.1c-.32.03-.32.03-.45.12l-.12.23q-.11.22-.25.4-.14.2-.23.4-.12.23-.28.47c-.07.1-.07.1-.14.24l-.2.33q-.21.3-.36.62l-.3.49a24 24 0 0 0-.85 1.43l-.1.15-.1.17-.62 1.08q-.2.3-.36.64h-.08l-.04.11q-.07.2-.18.4h-.09l-.02.13q-.1.28-.3.52c-.06.1-.1.16-.11.27h-.09l-.03.09q-.1.23-.24.47l-.05.08q-.16.3-.35.56l-.33.53-.07.12-.38.67-.4.68q-.2.31-.36.66l-.2.33-.29.48q-.14.26-.38.42l-.09.07c-.22.13-.54.1-.8.1h-.43l-.12.01h-1.95c-.48.01-.84-.01-1.26-.26-.25-.27-.29-.56-.28-.92a1 1 0 0 1 .15-.44l.05-.12c.17-.22.38-.3.64-.36l.53-.03q.78-.02 1.57 0h.72c.12-.01.15-.05.22-.14l.15-.29q.15-.33.37-.64c.05-.07.05-.07.05-.16l.13-.08.12-.23a10 10 0 0 1 .57-1.08h.09l.03-.09q.27-.63.66-1.2.19-.3.35-.61c.12-.22.12-.22.26-.27l.02-.12c.03-.15.07-.2.16-.31l.04-.11c.04-.11.04-.11.12-.2q.14-.2.25-.4l.16-.28.04-.08.1-.16q.1-.16.16-.34l.05-.06c.27-.26.45-.67.62-1q.29-.52.6-1 .23-.37.42-.76h.09v-.1q.05-.18.2-.33.14-.22.26-.46.08-.15.19-.29l.04-.1q.08-.19.21-.34l.12-.2q.08-.17.18-.32a10 10 0 0 0 .62-1.03l.06-.1.12-.2h.08l.02-.08q.07-.2.2-.4.15-.24.27-.5.1-.2.24-.39.26-.4.46-.8l.51-.86.06-.1.06-.1.14-.25h.09l.02-.11q.1-.24.25-.43.28-.4.46-.86h.1l.03-.11c.05-.14.1-.2.18-.32l.1-.22q.11-.2.25-.39l.27-.48.05-.1.1-.18c.13-.23.13-.23.27-.28l.09-.26.15-.26.08-.14.07-.12.1-.18.2-.3.05-.13h.09l.03-.1.16-.35.06-.11c.05-.1.05-.1.14-.14l.04-.08c.09-.18.18-.25.37-.32.45-.09.8-.03 1.18.21l.06.06v.09l.22.09v.08l.07.03q.2.13.38.3c.47.4.47.4.59.45q.16.11.3.27.45.42.96.78v.09l.1.03c.14.06.22.15.33.27l.25.23.12.1q.13.12.29.2l.21.2.23.16.18.17q.18.17.39.32.3.22.56.47l.22.15q.24.16.4.4.12.13.28.2l.13.1v.08l.1.03q.24.13.44.34a6 6 0 0 0 .6.52q.3.22.54.45.18.16.4.3l.05.06v.08l.1.03q.18.1.35.23l.12.1.08.08v.08l.1.04q.3.15.51.4l.08.07c.05.06.05.06.05.15h.1l.12.04.09.17c.07.05.07.05.17.09l.16.1.14.07c.13-.04.13-.04.18-.11l.04-.09.05-.1.04-.09.13-.26h.09l.03-.13q.08-.24.2-.45l.05-.08.44-.74q.15-.22.23-.47l.15-.23q.18-.26.29-.55h.08l.04-.09q.25-.61.63-1.16.14-.22.2-.49l-.08-.06-.11-.08-.1-.08c-.1-.09-.11-.13-.14-.25l-.13-.05-.17-.2-.3-.38q-.11-.14-.18-.29l-.06-.05q-.12-.14-.19-.3l-.06-.13-.06-.13-.13-.27-.06-.13-.15-.3c-.66-1.33-.46-3.19-.02-4.55q.2-.6.5-1.13h.1l.03-.12q.1-.23.26-.43l.06-.07c.5-.64.5-.64.7-.73.08-.04.08-.04.11-.12.1-.2.3-.31.48-.43.14-.1.14-.1.18-.19l.35-.2q.15-.09.3-.15l.09-.08.34-.17.1-.05a6 6 0 0 1 1.07-.38 6 6 0 0 1 4.02.24"/><path fill="#288a93" d="m60.44 33.04.17.04q.38.09.75.26l.29.1c.16.05.28.1.4.24l.06.3.1.46.03.1.11.43q.14.5.31.99c.09.23.09.23.09.32h.08l.04.14a1 1 0 0 0 .18.34l.13.3.3.55a12 12 0 0 0 .71 1.06l.24.33c.1.1.1.1.1.2h.08c.18.19.18.19.18.3h.08l.04.08q.08.13.2.22c.14.1.18.19.24.35l.18.09q.31.25.35.65v.3l-.02.1a6.3 6.3 0 0 1-1.15 3.2c-.1.14-.1.14-.14.27l-.17.17-.2.23-.1.13-.1.12q-.2.26-.47.48l-.06.05-.35.3-.07.05q-.16.13-.34.23c-.1.06-.1.06-.14.15l-.16.08-.29.16a6 6 0 0 1-1.2.5l-.25.07a.5.5 0 0 0-.27.14q-.11.3-.15.6l-.09.29q-.11.34-.19.72l-.28 1.08q-.1.37-.17.73l-.1.32-.22.8-.05.14-.04.15-.03.13-.03.39.24-.06.13-.03.44-.14.56-.17.12-.04.73-.22.16-.04.3-.09q.38-.1.75-.26.16-.06.34-.1.6-.16 1.16-.37.34-.14.72-.2l.4-.11c.12-.04.12-.04.3-.04l.04-.09.27-.08.14-.05.79-.24.09-.03.29-.1.84-.28q.28-.1.6-.1h.17q.34.03.59.28v.08h.09l.67 1.42a67 67 0 0 0 1.4 2.9q.16.34.35.67a6 6 0 0 1 .35.73l.19.42q.21.52.46 1.02l.2.43.08.16.04.08.04.08.84 1.75.05.1c.1.22.1.22.1.37h.1q0 .06.04.13l.27.6.2.41q.16.37.35.73l.04.08.1.18.22.5q.23.54.51 1.06l.22.48.11.22.32.68q.18.42.4.84l.6 1.26.3.6.1.19.05.09q.13.23.16.5h.09l.08.27a3 3 0 0 0 .68.04h.17l1.58-.02c.4 0 .72.06 1.03.3.1.11.1.11.1.2h.1c.14.31.2.64.09.98q-.09.16-.2.3l-.08.1c-.42.34-.9.3-1.41.3h-2.2c-.85 0-.85 0-1.2-.32a3 3 0 0 1-.52-.91q-.11-.24-.25-.47-.08-.15-.1-.33h-.09l-.05-.15-.19-.4q-.22-.45-.37-.93h-.08l-.28-.6-.35-.8-.24-.48-.2-.4-.1-.2-.04-.1-.3-.63-.06-.12-.28-.58q-.16-.3-.28-.6a8 8 0 0 0-.38-.77q-.12-.22-.21-.45l-.24-.48c-.56-1.12-.56-1.12-.56-1.35h-.09l-.06-.13a10 10 0 0 0-.45-.94q-.1-.18-.14-.36l-.12-.22a5 5 0 0 1-.3-.7l-.12-.22-.2-.38-.06-.15-.14-.3a7 7 0 0 0-.5-.99l-.06-.13-.1-.22-.27-.56-.36-.8q-.23-.55-.51-1.07l-.23-.49q0-.05-.04-.1l-.08-.23c-.24-.07-.41-.01-.64.07l-.2.07-.1.04q-.38.14-.75.23-.42.1-.83.26-.35.12-.72.21-1.1.3-2.16.69l-.14.05-.12.04-.22.05-.4.12q-.42.15-.86.25-.8.21-1.6.5-.37.14-.75.23-.23.04-.44.13c-.4.13-.82.15-1.2-.03a1 1 0 0 1-.4-.47c-.09-.42 0-.82.1-1.23l.07-.25.03-.13.1-.45q.08-.37.2-.73l.15-.6.06-.22q.08-.21.12-.43.24-.95.52-1.88l.25-.9q.03-.17.03-.36l-.5-.09a8 8 0 0 1-2.37-.7q-.04 0-.08-.03l-.44-.22v-.09l-.12-.03c-.41-.15-.74-.5-1.06-.8l-.27-.23-.07-.07-.08-.06c-.05-.07-.05-.07-.05-.2q-.04 0-.08-.03-.18-.13-.32-.32l-.1-.13a7 7 0 0 1-.63-.95l-.07-.11a1 1 0 0 1-.2-.59h-.08l-.15-.45-.04-.13a5 5 0 0 1-.19-.73c-.01-.08-.01-.08-.06-.12a7.7 7.7 0 0 1 1.5-6.12q.14-.13.2-.31l.1-.04c.15-.06.15-.12.2-.27q.12-.11.26-.21h.09l.01-.08c.05-.13.11-.17.23-.24l.12-.08.12-.08.21-.15.22-.16.13-.08q.35-.26.76-.42l.37-.15a7.6 7.6 0 0 1 4.78-.33"/><path fill="#9c6b1e" d="M41.11 8.95h.84c.11 0 .11 0 .16.05v1.34h.08q.37 0 .73.06.06 0 .1.02c.66.11 1.25.37 1.82.7q-.03.28-.15.53c0 .03 0 .03-.06.15l-.07.15-.13.3c0 .03 0 .03-.06.14l-.14.34q-.26-.07-.5-.2a5 5 0 0 0-1.62-.5l.04 2.18.74.17a5 5 0 0 1 1.52.7v.09l.07.03c.36.2.6.74.7 1.13.15.72.03 1.45-.37 2.07-.58.82-1.56 1.1-2.49 1.27-.08.02-.08.02-.21.02v1.43h-1.3v-1.43l-.57-.05a5 5 0 0 1-2.65-1.04q.04-.25.17-.49l.04-.07.57-1.05q.22.11.41.27.35.24.75.4l.1.04c.38.15.75.2 1.17.3v-2.23l-.35-.04q-.22-.05-.43-.13l-.12-.04c-.77-.27-1.5-.64-1.89-1.39a2.8 2.8 0 0 1-.12-1.87c.1-.3.26-.62.48-.87h.09v-.09a4 4 0 0 1 2-.95l.1-.03.24-.06V9.12c0-.22.12-.17.31-.17m2.78 12.21c1.58-.18 1.58-.18 2 .05.3.25.45.65.58 1.01q.15.32.34.6l.58.97.07.12.31.5c.07.1.07.1.07.19h.09q0-.04.03-.07l.23-.41.06-.1.67-1.1.44-.75.04-.08q.13-.21.22-.42c.22-.46.22-.46.45-.54q.42-.06.84-.01l.89.04q-.07.2-.18.38l-.05.08-.05.1-.06.1a87 87 0 0 1-1.51 2.44l-.05.08-.32.52-.07.12-.1.14 1.56.04v1.04a2 2 0 0 1-.43.05h-1.78v.7h2.21v1.08h-2.22v1.74h-1.82v-1.74h-2.17v-1.09h2.13l.04-.74-.09.05h-1.63q-.22-.01-.45-.05v-1.04h1.56l-.19-.3-.06-.1-.85-1.38-.5-.83-.78-1.23c-.05-.07-.05-.07-.05-.16m-11.32-.1h1.8l4.74.02q-.08.2-.2.4l-.05.1-.06.11-.06.11c-.15.27-.15.27-.2.32h-1.18q-.3 0-.6-.05l.07.12c.4.64.4.64.4.93h1.88q-.08.21-.2.42l-.05.1-.06.12-.06.11c-.15.28-.15.28-.2.33h-1.26l-.01.16q-.11.64-.55 1.1l-.08.11c-.56.65-1.62.96-2.44 1.07q.16.29.38.51l.16.18.08.09.36.42.07.08.5.6.91 1.04.38.44q.26.32.54.62c.22.25.22.25.22.36l-1.4.02h-.12c-.19 0-.27 0-.43-.12l-.16-.2q-.45-.44-.83-.93l-.31-.35-.51-.6-.43-.48-.3-.35a8 8 0 0 0-.78-.86c-.2-.19-.25-.34-.27-.61q0-.41.03-.82h.13l.7-.01c.79-.02 1.54-.1 2.15-.68.2-.23.33-.44.4-.74l-3.82-.05c.15-.37.37-.72.57-1.08l3.17-.05-.22-.26v-.08l-.07-.04q-.15-.08-.29-.18c-.88-.51-2.12-.36-3.12-.35q.04-.22.14-.4l.06-.1.06-.11.06-.11c.2-.36.2-.36.36-.38"/><path fill="#e8963e" d="M42.1 16.12c.43.1.76.2 1.04.55q.16.35.02.72a1.2 1.2 0 0 1-1.05.6zm-1.25-4.04v1.78a1.3 1.3 0 0 1-.88-.44c-.15-.23-.16-.46-.12-.73q.14-.36.47-.52c.35-.15.35-.15.53-.09"/></svg>